<mxfile host="app.diagrams.net" agent="Mozilla/5.0 (Windows NT 10.0; Win64; x64) AppleWebKit/537.36 (KHTML, like Gecko) Chrome/129.0.0.0 Safari/537.36" version="24.7.16">
  <diagram name="PÃ¡gina-1" id="ItHLLXzB8lYjNdOFxO-I">
    <mxGraphModel dx="1134" dy="649" grid="1" gridSize="10" guides="1" tooltips="1" connect="1" arrows="1" fold="1" page="1" pageScale="1" pageWidth="827" pageHeight="1169" math="0" shadow="0">
      <root>
        <mxCell id="0" />
        <mxCell id="1" parent="0" />
        <mxCell id="RirZYs1BGM626u0CkmyT-2" value="m: list[list[int]]&lt;div style=&quot;font-size: 11px;&quot;&gt;root: tuple[int, int]&lt;/div&gt;&lt;div style=&quot;font-size: 11px;&quot;&gt;destiny: tuple[int, int]&lt;br style=&quot;font-size: 11px;&quot;&gt;&lt;/div&gt;&lt;div style=&quot;font-size: 11px;&quot;&gt;cur: tuple[int, int]&lt;/div&gt;&lt;div style=&quot;font-size: 11px;&quot;&gt;path: list[tuple[int, int]]&lt;/div&gt;" style="rounded=1;whiteSpace=wrap;html=1;align=left;perimeterSpacing=0;spacingLeft=7;fontFamily=JetBrains Mono;fontSource=https%3A%2F%2Ffonts.googleapis.com%2Fcss%3Ffamily%3DJetBrains%2BMono;fontSize=11;" vertex="1" parent="1">
          <mxGeometry x="380" y="15" width="200" height="90" as="geometry" />
        </mxCell>
        <mxCell id="RirZYs1BGM626u0CkmyT-3" value="" style="endArrow=none;dashed=1;html=1;dashPattern=1 3;strokeWidth=2;rounded=0;entryX=0;entryY=0.5;entryDx=0;entryDy=0;exitX=1;exitY=0.5;exitDx=0;exitDy=0;fontFamily=JetBrains Mono;fontSource=https%3A%2F%2Ffonts.googleapis.com%2Fcss%3Ffamily%3DJetBrains%2BMono;fontSize=11;" edge="1" parent="1" source="RirZYs1BGM626u0CkmyT-4" target="RirZYs1BGM626u0CkmyT-2">
          <mxGeometry width="50" height="50" relative="1" as="geometry">
            <mxPoint x="320" y="90" as="sourcePoint" />
            <mxPoint x="370" y="40" as="targetPoint" />
          </mxGeometry>
        </mxCell>
        <mxCell id="RirZYs1BGM626u0CkmyT-6" value="" style="edgeStyle=orthogonalEdgeStyle;rounded=0;orthogonalLoop=1;jettySize=auto;html=1;fontFamily=JetBrains Mono;fontSource=https%3A%2F%2Ffonts.googleapis.com%2Fcss%3Ffamily%3DJetBrains%2BMono;fontSize=11;" edge="1" parent="1" source="RirZYs1BGM626u0CkmyT-4" target="RirZYs1BGM626u0CkmyT-5">
          <mxGeometry relative="1" as="geometry" />
        </mxCell>
        <mxCell id="RirZYs1BGM626u0CkmyT-4" value="navigate: list[tuple[int, int]] | bool" style="rounded=1;whiteSpace=wrap;html=1;arcSize=50;fontFamily=JetBrains Mono;fontSource=https%3A%2F%2Ffonts.googleapis.com%2Fcss%3Ffamily%3DJetBrains%2BMono;fontSize=11;" vertex="1" parent="1">
          <mxGeometry x="120" y="40" width="200" height="40" as="geometry" />
        </mxCell>
        <mxCell id="RirZYs1BGM626u0CkmyT-8" value="" style="edgeStyle=orthogonalEdgeStyle;rounded=0;orthogonalLoop=1;jettySize=auto;html=1;fontFamily=JetBrains Mono;fontSource=https%3A%2F%2Ffonts.googleapis.com%2Fcss%3Ffamily%3DJetBrains%2BMono;fontSize=11;" edge="1" parent="1" source="RirZYs1BGM626u0CkmyT-5" target="RirZYs1BGM626u0CkmyT-7">
          <mxGeometry relative="1" as="geometry" />
        </mxCell>
        <mxCell id="RirZYs1BGM626u0CkmyT-11" value="" style="edgeStyle=orthogonalEdgeStyle;rounded=0;orthogonalLoop=1;jettySize=auto;html=1;fontFamily=JetBrains Mono;fontSource=https%3A%2F%2Ffonts.googleapis.com%2Fcss%3Ffamily%3DJetBrains%2BMono;fontSize=11;" edge="1" parent="1" source="RirZYs1BGM626u0CkmyT-5" target="RirZYs1BGM626u0CkmyT-10">
          <mxGeometry relative="1" as="geometry" />
        </mxCell>
        <mxCell id="RirZYs1BGM626u0CkmyT-5" value="cur == None" style="rhombus;whiteSpace=wrap;html=1;fontFamily=JetBrains Mono;fontSource=https%3A%2F%2Ffonts.googleapis.com%2Fcss%3Ffamily%3DJetBrains%2BMono;fontSize=11;" vertex="1" parent="1">
          <mxGeometry x="165" y="105" width="110" height="80" as="geometry" />
        </mxCell>
        <mxCell id="RirZYs1BGM626u0CkmyT-7" value="cur = root" style="whiteSpace=wrap;html=1;fontFamily=JetBrains Mono;fontSource=https%3A%2F%2Ffonts.googleapis.com%2Fcss%3Ffamily%3DJetBrains%2BMono;fontSize=11;" vertex="1" parent="1">
          <mxGeometry x="314" y="122.5" width="100" height="45" as="geometry" />
        </mxCell>
        <mxCell id="RirZYs1BGM626u0CkmyT-18" value="" style="edgeStyle=orthogonalEdgeStyle;rounded=0;orthogonalLoop=1;jettySize=auto;html=1;fontFamily=JetBrains Mono;fontSource=https%3A%2F%2Ffonts.googleapis.com%2Fcss%3Ffamily%3DJetBrains%2BMono;fontSize=11;" edge="1" parent="1" source="RirZYs1BGM626u0CkmyT-10" target="RirZYs1BGM626u0CkmyT-17">
          <mxGeometry relative="1" as="geometry" />
        </mxCell>
        <mxCell id="RirZYs1BGM626u0CkmyT-10" value="" style="strokeWidth=2;html=1;shape=mxgraph.flowchart.start_2;whiteSpace=wrap;fontFamily=JetBrains Mono;fontSource=https%3A%2F%2Ffonts.googleapis.com%2Fcss%3Ffamily%3DJetBrains%2BMono;fontSize=11;" vertex="1" parent="1">
          <mxGeometry x="215" y="210" width="10" height="10" as="geometry" />
        </mxCell>
        <mxCell id="RirZYs1BGM626u0CkmyT-12" style="edgeStyle=orthogonalEdgeStyle;rounded=0;orthogonalLoop=1;jettySize=auto;html=1;entryX=1;entryY=0.5;entryDx=0;entryDy=0;entryPerimeter=0;fontFamily=JetBrains Mono;fontSource=https%3A%2F%2Ffonts.googleapis.com%2Fcss%3Ffamily%3DJetBrains%2BMono;fontSize=11;" edge="1" parent="1" source="RirZYs1BGM626u0CkmyT-7" target="RirZYs1BGM626u0CkmyT-10">
          <mxGeometry relative="1" as="geometry">
            <Array as="points">
              <mxPoint x="360" y="215" />
            </Array>
          </mxGeometry>
        </mxCell>
        <mxCell id="RirZYs1BGM626u0CkmyT-20" value="" style="edgeStyle=orthogonalEdgeStyle;rounded=0;orthogonalLoop=1;jettySize=auto;html=1;fontFamily=JetBrains Mono;fontSource=https%3A%2F%2Ffonts.googleapis.com%2Fcss%3Ffamily%3DJetBrains%2BMono;fontSize=11;" edge="1" parent="1" source="RirZYs1BGM626u0CkmyT-17" target="RirZYs1BGM626u0CkmyT-19">
          <mxGeometry relative="1" as="geometry" />
        </mxCell>
        <mxCell id="RirZYs1BGM626u0CkmyT-17" value="path.append(cur)" style="whiteSpace=wrap;html=1;fontFamily=JetBrains Mono;fontSource=https%3A%2F%2Ffonts.googleapis.com%2Fcss%3Ffamily%3DJetBrains%2BMono;fontSize=11;" vertex="1" parent="1">
          <mxGeometry x="160" y="250" width="120" height="30" as="geometry" />
        </mxCell>
        <mxCell id="RirZYs1BGM626u0CkmyT-22" value="" style="edgeStyle=orthogonalEdgeStyle;rounded=0;orthogonalLoop=1;jettySize=auto;html=1;fontFamily=JetBrains Mono;fontSource=https%3A%2F%2Ffonts.googleapis.com%2Fcss%3Ffamily%3DJetBrains%2BMono;fontSize=11;" edge="1" parent="1" source="RirZYs1BGM626u0CkmyT-19" target="RirZYs1BGM626u0CkmyT-21">
          <mxGeometry relative="1" as="geometry" />
        </mxCell>
        <mxCell id="RirZYs1BGM626u0CkmyT-19" value="h = len(m)" style="whiteSpace=wrap;html=1;fontFamily=JetBrains Mono;fontSource=https%3A%2F%2Ffonts.googleapis.com%2Fcss%3Ffamily%3DJetBrains%2BMono;fontSize=11;" vertex="1" parent="1">
          <mxGeometry x="170" y="300" width="100" height="30" as="geometry" />
        </mxCell>
        <mxCell id="RirZYs1BGM626u0CkmyT-24" value="" style="edgeStyle=orthogonalEdgeStyle;rounded=0;orthogonalLoop=1;jettySize=auto;html=1;fontFamily=JetBrains Mono;fontSource=https%3A%2F%2Ffonts.googleapis.com%2Fcss%3Ffamily%3DJetBrains%2BMono;fontSize=11;" edge="1" parent="1" source="RirZYs1BGM626u0CkmyT-21" target="RirZYs1BGM626u0CkmyT-23">
          <mxGeometry relative="1" as="geometry" />
        </mxCell>
        <mxCell id="RirZYs1BGM626u0CkmyT-21" value="w = len(m[0])" style="whiteSpace=wrap;html=1;fontFamily=JetBrains Mono;fontSource=https%3A%2F%2Ffonts.googleapis.com%2Fcss%3Ffamily%3DJetBrains%2BMono;fontSize=11;" vertex="1" parent="1">
          <mxGeometry x="165" y="345" width="110" height="30" as="geometry" />
        </mxCell>
        <mxCell id="RirZYs1BGM626u0CkmyT-26" value="" style="edgeStyle=orthogonalEdgeStyle;rounded=0;orthogonalLoop=1;jettySize=auto;html=1;fontFamily=JetBrains Mono;fontSource=https%3A%2F%2Ffonts.googleapis.com%2Fcss%3Ffamily%3DJetBrains%2BMono;fontSize=11;" edge="1" parent="1" source="RirZYs1BGM626u0CkmyT-23">
          <mxGeometry relative="1" as="geometry">
            <mxPoint x="220.0000000000001" y="479.9999999999999" as="targetPoint" />
          </mxGeometry>
        </mxCell>
        <mxCell id="RirZYs1BGM626u0CkmyT-55" value="" style="edgeStyle=orthogonalEdgeStyle;rounded=0;orthogonalLoop=1;jettySize=auto;html=1;fontFamily=JetBrains Mono;fontSource=https%3A%2F%2Ffonts.googleapis.com%2Fcss%3Ffamily%3DJetBrains%2BMono;fontSize=11;" edge="1" parent="1" source="RirZYs1BGM626u0CkmyT-23" target="RirZYs1BGM626u0CkmyT-54">
          <mxGeometry relative="1" as="geometry" />
        </mxCell>
        <mxCell id="RirZYs1BGM626u0CkmyT-23" value="p in directions(cur)" style="shape=hexagon;perimeter=hexagonPerimeter2;whiteSpace=wrap;html=1;fixedSize=1;fontFamily=JetBrains Mono;fontSource=https%3A%2F%2Ffonts.googleapis.com%2Fcss%3Ffamily%3DJetBrains%2BMono;fontSize=11;" vertex="1" parent="1">
          <mxGeometry x="140" y="410" width="160" height="45" as="geometry" />
        </mxCell>
        <mxCell id="RirZYs1BGM626u0CkmyT-29" value="" style="edgeStyle=orthogonalEdgeStyle;rounded=0;orthogonalLoop=1;jettySize=auto;html=1;fontFamily=JetBrains Mono;fontSource=https%3A%2F%2Ffonts.googleapis.com%2Fcss%3Ffamily%3DJetBrains%2BMono;fontSize=11;" edge="1" parent="1" source="RirZYs1BGM626u0CkmyT-27" target="RirZYs1BGM626u0CkmyT-28">
          <mxGeometry relative="1" as="geometry" />
        </mxCell>
        <mxCell id="RirZYs1BGM626u0CkmyT-27" value="visited = p in path" style="whiteSpace=wrap;html=1;fontFamily=JetBrains Mono;fontSource=https%3A%2F%2Ffonts.googleapis.com%2Fcss%3Ffamily%3DJetBrains%2BMono;fontSize=11;" vertex="1" parent="1">
          <mxGeometry x="150" y="480" width="140" height="30" as="geometry" />
        </mxCell>
        <mxCell id="RirZYs1BGM626u0CkmyT-31" value="" style="edgeStyle=orthogonalEdgeStyle;rounded=0;orthogonalLoop=1;jettySize=auto;html=1;fontFamily=JetBrains Mono;fontSource=https%3A%2F%2Ffonts.googleapis.com%2Fcss%3Ffamily%3DJetBrains%2BMono;fontSize=11;" edge="1" parent="1" source="RirZYs1BGM626u0CkmyT-28" target="RirZYs1BGM626u0CkmyT-30">
          <mxGeometry relative="1" as="geometry" />
        </mxCell>
        <mxCell id="RirZYs1BGM626u0CkmyT-28" value="valid = bounded(p, m, h, w)" style="whiteSpace=wrap;html=1;fontFamily=JetBrains Mono;fontSource=https%3A%2F%2Ffonts.googleapis.com%2Fcss%3Ffamily%3DJetBrains%2BMono;fontSize=11;" vertex="1" parent="1">
          <mxGeometry x="120" y="530" width="200" height="30" as="geometry" />
        </mxCell>
        <mxCell id="RirZYs1BGM626u0CkmyT-33" value="" style="edgeStyle=orthogonalEdgeStyle;rounded=0;orthogonalLoop=1;jettySize=auto;html=1;fontFamily=JetBrains Mono;fontSource=https%3A%2F%2Ffonts.googleapis.com%2Fcss%3Ffamily%3DJetBrains%2BMono;fontSize=11;" edge="1" parent="1" source="RirZYs1BGM626u0CkmyT-30" target="RirZYs1BGM626u0CkmyT-32">
          <mxGeometry relative="1" as="geometry">
            <Array as="points">
              <mxPoint x="220" y="670" />
              <mxPoint x="220" y="670" />
            </Array>
          </mxGeometry>
        </mxCell>
        <mxCell id="RirZYs1BGM626u0CkmyT-45" value="" style="edgeStyle=orthogonalEdgeStyle;rounded=0;orthogonalLoop=1;jettySize=auto;html=1;fontFamily=JetBrains Mono;fontSource=https%3A%2F%2Ffonts.googleapis.com%2Fcss%3Ffamily%3DJetBrains%2BMono;fontSize=11;" edge="1" parent="1" source="RirZYs1BGM626u0CkmyT-30" target="RirZYs1BGM626u0CkmyT-44">
          <mxGeometry relative="1" as="geometry">
            <Array as="points">
              <mxPoint x="60" y="610" />
              <mxPoint x="60" y="900" />
            </Array>
          </mxGeometry>
        </mxCell>
        <mxCell id="RirZYs1BGM626u0CkmyT-30" value="!visited and valid" style="rhombus;whiteSpace=wrap;html=1;fontFamily=JetBrains Mono;fontSource=https%3A%2F%2Ffonts.googleapis.com%2Fcss%3Ffamily%3DJetBrains%2BMono;fontSize=11;" vertex="1" parent="1">
          <mxGeometry x="140" y="580" width="160" height="60" as="geometry" />
        </mxCell>
        <mxCell id="RirZYs1BGM626u0CkmyT-35" value="" style="edgeStyle=orthogonalEdgeStyle;rounded=0;orthogonalLoop=1;jettySize=auto;html=1;fontFamily=JetBrains Mono;fontSource=https%3A%2F%2Ffonts.googleapis.com%2Fcss%3Ffamily%3DJetBrains%2BMono;fontSize=11;" edge="1" parent="1" source="RirZYs1BGM626u0CkmyT-32" target="RirZYs1BGM626u0CkmyT-34">
          <mxGeometry relative="1" as="geometry">
            <Array as="points">
              <mxPoint x="220" y="710" />
              <mxPoint x="220" y="710" />
            </Array>
          </mxGeometry>
        </mxCell>
        <mxCell id="RirZYs1BGM626u0CkmyT-32" value="res = navigate(m, root, destiny, p, path.copy())" style="whiteSpace=wrap;html=1;fontFamily=JetBrains Mono;fontSource=https%3A%2F%2Ffonts.googleapis.com%2Fcss%3Ffamily%3DJetBrains%2BMono;fontSize=11;" vertex="1" parent="1">
          <mxGeometry x="85" y="670" width="335" height="30" as="geometry" />
        </mxCell>
        <mxCell id="RirZYs1BGM626u0CkmyT-37" value="" style="edgeStyle=orthogonalEdgeStyle;rounded=0;orthogonalLoop=1;jettySize=auto;html=1;fontFamily=JetBrains Mono;fontSource=https%3A%2F%2Ffonts.googleapis.com%2Fcss%3Ffamily%3DJetBrains%2BMono;fontSize=11;" edge="1" parent="1" source="RirZYs1BGM626u0CkmyT-34" target="RirZYs1BGM626u0CkmyT-36">
          <mxGeometry relative="1" as="geometry" />
        </mxCell>
        <mxCell id="RirZYs1BGM626u0CkmyT-46" value="" style="edgeStyle=orthogonalEdgeStyle;rounded=0;orthogonalLoop=1;jettySize=auto;html=1;fontFamily=JetBrains Mono;fontSource=https%3A%2F%2Ffonts.googleapis.com%2Fcss%3Ffamily%3DJetBrains%2BMono;fontSize=11;" edge="1" parent="1" source="RirZYs1BGM626u0CkmyT-34" target="RirZYs1BGM626u0CkmyT-44">
          <mxGeometry relative="1" as="geometry">
            <Array as="points">
              <mxPoint x="60" y="755" />
              <mxPoint x="60" y="900" />
            </Array>
          </mxGeometry>
        </mxCell>
        <mxCell id="RirZYs1BGM626u0CkmyT-34" value="res" style="rhombus;whiteSpace=wrap;html=1;fontFamily=JetBrains Mono;fontSource=https%3A%2F%2Ffonts.googleapis.com%2Fcss%3Ffamily%3DJetBrains%2BMono;fontSize=11;" vertex="1" parent="1">
          <mxGeometry x="160" y="730" width="120" height="50" as="geometry" />
        </mxCell>
        <mxCell id="RirZYs1BGM626u0CkmyT-36" value="return res" style="strokeWidth=1;html=1;shape=mxgraph.flowchart.terminator;whiteSpace=wrap;fontFamily=JetBrains Mono;fontSource=https%3A%2F%2Ffonts.googleapis.com%2Fcss%3Ffamily%3DJetBrains%2BMono;fontSize=11;" vertex="1" parent="1">
          <mxGeometry x="177.5" y="810" width="85" height="40" as="geometry" />
        </mxCell>
        <mxCell id="RirZYs1BGM626u0CkmyT-48" value="" style="edgeStyle=orthogonalEdgeStyle;rounded=0;orthogonalLoop=1;jettySize=auto;html=1;fontFamily=JetBrains Mono;fontSource=https%3A%2F%2Ffonts.googleapis.com%2Fcss%3Ffamily%3DJetBrains%2BMono;fontSize=11;" edge="1" parent="1" source="RirZYs1BGM626u0CkmyT-44" target="RirZYs1BGM626u0CkmyT-47">
          <mxGeometry relative="1" as="geometry">
            <Array as="points">
              <mxPoint x="335" y="900" />
            </Array>
          </mxGeometry>
        </mxCell>
        <mxCell id="RirZYs1BGM626u0CkmyT-53" style="edgeStyle=orthogonalEdgeStyle;rounded=0;orthogonalLoop=1;jettySize=auto;html=1;entryX=0;entryY=0.5;entryDx=0;entryDy=0;fontFamily=JetBrains Mono;fontSource=https%3A%2F%2Ffonts.googleapis.com%2Fcss%3Ffamily%3DJetBrains%2BMono;fontSize=11;" edge="1" parent="1" source="RirZYs1BGM626u0CkmyT-44" target="RirZYs1BGM626u0CkmyT-23">
          <mxGeometry relative="1" as="geometry">
            <Array as="points">
              <mxPoint x="220" y="950" />
              <mxPoint x="30" y="950" />
              <mxPoint x="30" y="432" />
            </Array>
          </mxGeometry>
        </mxCell>
        <mxCell id="RirZYs1BGM626u0CkmyT-44" value="p == destiny" style="rhombus;whiteSpace=wrap;html=1;fontFamily=JetBrains Mono;fontSource=https%3A%2F%2Ffonts.googleapis.com%2Fcss%3Ffamily%3DJetBrains%2BMono;fontSize=11;" vertex="1" parent="1">
          <mxGeometry x="160" y="870" width="120" height="60" as="geometry" />
        </mxCell>
        <mxCell id="RirZYs1BGM626u0CkmyT-50" value="" style="edgeStyle=orthogonalEdgeStyle;rounded=0;orthogonalLoop=1;jettySize=auto;html=1;fontFamily=JetBrains Mono;fontSource=https%3A%2F%2Ffonts.googleapis.com%2Fcss%3Ffamily%3DJetBrains%2BMono;fontSize=11;" edge="1" parent="1" source="RirZYs1BGM626u0CkmyT-47" target="RirZYs1BGM626u0CkmyT-49">
          <mxGeometry relative="1" as="geometry" />
        </mxCell>
        <mxCell id="RirZYs1BGM626u0CkmyT-47" value="path.append(p)" style="whiteSpace=wrap;html=1;fontFamily=JetBrains Mono;fontSource=https%3A%2F%2Ffonts.googleapis.com%2Fcss%3Ffamily%3DJetBrains%2BMono;fontSize=11;" vertex="1" parent="1">
          <mxGeometry x="275" y="940" width="120" height="30" as="geometry" />
        </mxCell>
        <mxCell id="RirZYs1BGM626u0CkmyT-49" value="return path" style="strokeWidth=1;html=1;shape=mxgraph.flowchart.terminator;whiteSpace=wrap;fontFamily=JetBrains Mono;fontSource=https%3A%2F%2Ffonts.googleapis.com%2Fcss%3Ffamily%3DJetBrains%2BMono;fontSize=11;" vertex="1" parent="1">
          <mxGeometry x="278.75" y="1010" width="112.5" height="40" as="geometry" />
        </mxCell>
        <mxCell id="RirZYs1BGM626u0CkmyT-54" value="return False" style="strokeWidth=1;html=1;shape=mxgraph.flowchart.terminator;whiteSpace=wrap;fontFamily=JetBrains Mono;fontSource=https%3A%2F%2Ffonts.googleapis.com%2Fcss%3Ffamily%3DJetBrains%2BMono;fontSize=11;" vertex="1" parent="1">
          <mxGeometry x="350" y="412.5" width="100" height="40" as="geometry" />
        </mxCell>
        <mxCell id="RirZYs1BGM626u0CkmyT-56" value="p&lt;span style=&quot;background-color: initial; font-size: 11px;&quot;&gt;: tuple[int, int]&lt;/span&gt;" style="rounded=1;whiteSpace=wrap;html=1;align=left;perimeterSpacing=0;spacingLeft=7;fontFamily=JetBrains Mono;fontSource=https%3A%2F%2Ffonts.googleapis.com%2Fcss%3Ffamily%3DJetBrains%2BMono;fontSize=11;" vertex="1" parent="1">
          <mxGeometry x="960" y="21.25" width="130" height="27.5" as="geometry" />
        </mxCell>
        <mxCell id="RirZYs1BGM626u0CkmyT-59" value="" style="edgeStyle=orthogonalEdgeStyle;rounded=0;orthogonalLoop=1;jettySize=auto;html=1;fontFamily=JetBrains Mono;fontSource=https%3A%2F%2Ffonts.googleapis.com%2Fcss%3Ffamily%3DJetBrains%2BMono;fontSize=11;" edge="1" parent="1" source="RirZYs1BGM626u0CkmyT-57" target="RirZYs1BGM626u0CkmyT-58">
          <mxGeometry relative="1" as="geometry" />
        </mxCell>
        <mxCell id="RirZYs1BGM626u0CkmyT-57" value="directions: list[tuple[int, int]]" style="rounded=1;whiteSpace=wrap;html=1;arcSize=50;fontFamily=JetBrains Mono;fontSource=https%3A%2F%2Ffonts.googleapis.com%2Fcss%3Ffamily%3DJetBrains%2BMono;fontSize=11;" vertex="1" parent="1">
          <mxGeometry x="660" y="15" width="240" height="40" as="geometry" />
        </mxCell>
        <mxCell id="RirZYs1BGM626u0CkmyT-58" value="return [&lt;div style=&quot;font-size: 11px;&quot;&gt;&lt;span style=&quot;background-color: initial; font-size: 11px;&quot;&gt;&lt;div style=&quot;font-size: 11px;&quot;&gt;&amp;nbsp; (p[0], p[1] - 1),&lt;/div&gt;&lt;div style=&quot;font-size: 11px;&quot;&gt;&amp;nbsp; (p&lt;span style=&quot;background-color: initial; font-size: 11px;&quot;&gt;[0]&lt;/span&gt;&lt;span style=&quot;background-color: initial; font-size: 11px;&quot;&gt;, p&lt;/span&gt;&lt;span style=&quot;background-color: initial; font-size: 11px;&quot;&gt;[1]&lt;/span&gt;&lt;span style=&quot;background-color: initial; font-size: 11px;&quot;&gt;&amp;nbsp;+ 1),&lt;/span&gt;&lt;/div&gt;&lt;/span&gt;&lt;span style=&quot;background-color: initial; font-size: 11px;&quot;&gt;&lt;div style=&quot;font-size: 11px;&quot;&gt;&amp;nbsp; (p&lt;span style=&quot;background-color: initial; font-size: 11px;&quot;&gt;[0]&lt;/span&gt;&lt;span style=&quot;background-color: initial; font-size: 11px;&quot;&gt;&amp;nbsp;- 1, p&lt;/span&gt;&lt;span style=&quot;background-color: initial; font-size: 11px;&quot;&gt;[1]&lt;/span&gt;&lt;span style=&quot;background-color: initial; font-size: 11px;&quot;&gt;),&lt;/span&gt;&lt;/div&gt;&lt;/span&gt;&lt;span style=&quot;background-color: initial; font-size: 11px;&quot;&gt;&lt;div style=&quot;font-size: 11px;&quot;&gt;&amp;nbsp; (p&lt;span style=&quot;background-color: initial; font-size: 11px;&quot;&gt;[0]&lt;/span&gt;&lt;span style=&quot;background-color: initial; font-size: 11px;&quot;&gt;&amp;nbsp;+ 1, p&lt;/span&gt;&lt;span style=&quot;background-color: initial; font-size: 11px;&quot;&gt;[1]&lt;/span&gt;&lt;span style=&quot;background-color: initial; font-size: 11px;&quot;&gt;),&lt;/span&gt;&lt;/div&gt;&lt;/span&gt;&lt;/div&gt;&lt;div style=&quot;font-size: 11px;&quot;&gt;&lt;span style=&quot;background-color: initial; font-size: 11px;&quot;&gt;]&lt;/span&gt;&lt;/div&gt;" style="rounded=1;whiteSpace=wrap;html=1;arcSize=23;align=left;spacingLeft=37;fontFamily=JetBrains Mono;fontSource=https%3A%2F%2Ffonts.googleapis.com%2Fcss%3Ffamily%3DJetBrains%2BMono;fontSize=11;" vertex="1" parent="1">
          <mxGeometry x="680" y="97.5" width="200" height="107.5" as="geometry" />
        </mxCell>
        <mxCell id="RirZYs1BGM626u0CkmyT-61" value="" style="endArrow=none;dashed=1;html=1;dashPattern=1 3;strokeWidth=2;rounded=0;entryX=0;entryY=0.5;entryDx=0;entryDy=0;fontFamily=JetBrains Mono;fontSource=https%3A%2F%2Ffonts.googleapis.com%2Fcss%3Ffamily%3DJetBrains%2BMono;fontSize=11;" edge="1" parent="1">
          <mxGeometry width="50" height="50" relative="1" as="geometry">
            <mxPoint x="900" y="35" as="sourcePoint" />
            <mxPoint x="960" y="34.63" as="targetPoint" />
          </mxGeometry>
        </mxCell>
        <mxCell id="RirZYs1BGM626u0CkmyT-62" value="p: tuple[int, int],&lt;div style=&quot;font-size: 11px;&quot;&gt;m: list[list[int]],&lt;/div&gt;&lt;div style=&quot;font-size: 11px;&quot;&gt;h: int,&lt;/div&gt;&lt;div style=&quot;font-size: 11px;&quot;&gt;w: int&lt;br style=&quot;font-size: 11px;&quot;&gt;&lt;/div&gt;" style="rounded=1;whiteSpace=wrap;html=1;align=left;perimeterSpacing=0;spacingLeft=7;fontFamily=JetBrains Mono;fontSource=https%3A%2F%2Ffonts.googleapis.com%2Fcss%3Ffamily%3DJetBrains%2BMono;fontSize=11;" vertex="1" parent="1">
          <mxGeometry x="860" y="250" width="140" height="70" as="geometry" />
        </mxCell>
        <mxCell id="RirZYs1BGM626u0CkmyT-63" value="" style="endArrow=none;dashed=1;html=1;dashPattern=1 3;strokeWidth=2;rounded=0;entryX=0;entryY=0.5;entryDx=0;entryDy=0;exitX=1;exitY=0.5;exitDx=0;exitDy=0;fontFamily=JetBrains Mono;fontSource=https%3A%2F%2Ffonts.googleapis.com%2Fcss%3Ffamily%3DJetBrains%2BMono;fontSize=11;" edge="1" parent="1" source="RirZYs1BGM626u0CkmyT-65" target="RirZYs1BGM626u0CkmyT-62">
          <mxGeometry width="50" height="50" relative="1" as="geometry">
            <mxPoint x="870" y="315" as="sourcePoint" />
            <mxPoint x="920" y="265" as="targetPoint" />
          </mxGeometry>
        </mxCell>
        <mxCell id="RirZYs1BGM626u0CkmyT-67" value="" style="edgeStyle=orthogonalEdgeStyle;rounded=0;orthogonalLoop=1;jettySize=auto;html=1;fontFamily=JetBrains Mono;fontSource=https%3A%2F%2Ffonts.googleapis.com%2Fcss%3Ffamily%3DJetBrains%2BMono;fontSize=11;" edge="1" parent="1" source="RirZYs1BGM626u0CkmyT-65" target="RirZYs1BGM626u0CkmyT-66">
          <mxGeometry relative="1" as="geometry">
            <Array as="points">
              <mxPoint x="730" y="340" />
              <mxPoint x="730" y="340" />
            </Array>
          </mxGeometry>
        </mxCell>
        <mxCell id="RirZYs1BGM626u0CkmyT-65" value="bounded: bool" style="rounded=1;whiteSpace=wrap;html=1;arcSize=50;fontFamily=JetBrains Mono;fontSource=https%3A%2F%2Ffonts.googleapis.com%2Fcss%3Ffamily%3DJetBrains%2BMono;fontSize=11;" vertex="1" parent="1">
          <mxGeometry x="670" y="265" width="120" height="40" as="geometry" />
        </mxCell>
        <mxCell id="RirZYs1BGM626u0CkmyT-66" value="return (&lt;div style=&quot;font-size: 11px;&quot;&gt;&lt;span style=&quot;background-color: initial; font-size: 11px;&quot;&gt;&amp;nbsp; 0 &amp;lt;= p.x &amp;lt; w&amp;nbsp;&lt;/span&gt;&lt;span style=&quot;background-color: initial; font-size: 11px;&quot;&gt;and&lt;/span&gt;&lt;/div&gt;&lt;div style=&quot;font-size: 11px;&quot;&gt;&lt;span style=&quot;background-color: initial; font-size: 11px;&quot;&gt;&amp;nbsp; 0 &amp;lt;= p.y &amp;lt; h and&lt;/span&gt;&lt;/div&gt;&lt;div style=&quot;font-size: 11px;&quot;&gt;&lt;span style=&quot;background-color: initial; font-size: 11px;&quot;&gt;&amp;nbsp; m[p[1]][p[0]] == 0&lt;/span&gt;&lt;/div&gt;&lt;div style=&quot;font-size: 11px;&quot;&gt;&lt;span style=&quot;background-color: initial; font-size: 11px;&quot;&gt;)&lt;/span&gt;&lt;/div&gt;" style="rounded=1;whiteSpace=wrap;html=1;arcSize=25;align=left;spacingLeft=37;fontFamily=JetBrains Mono;fontSource=https%3A%2F%2Ffonts.googleapis.com%2Fcss%3Ffamily%3DJetBrains%2BMono;fontSize=11;" vertex="1" parent="1">
          <mxGeometry x="660" y="362.5" width="200" height="107.5" as="geometry" />
        </mxCell>
      </root>
    </mxGraphModel>
  </diagram>
</mxfile>
